<?xml version="1.0" encoding="UTF-8"?>
<svg xmlns="http://www.w3.org/2000/svg" version="1.1" viewBox="0 0 1241.66 374.98">
  <defs>
    <style>
      .cls-1 {
        fill: #ed6d28;
      }

      .cls-1, .cls-2, .cls-3, .cls-4 {
        isolation: isolate;
      }

      .cls-2 {
        fill: #d73d15;
        fill-rule: evenodd;
      }

      .cls-3, .cls-4 {
        fill: #404c54;
      }

      .cls-4 {
        opacity: .98;
      }
    </style>
  </defs>
  <!-- Generator: Adobe Illustrator 28.6.0, SVG Export Plug-In . SVG Version: 1.2.0 Build 709)  -->
  <g>
    <g id="Ebene_1">
      <g>
        <path class="cls-3" d="M736.56,162.54c-.38.48-.64.82-.87,1.17-4.01,6-7.91,12.06-12.05,17.95-1.16,1.65-1.49,3.21-1.3,5.08.29,2.95.6,5.89.79,8.84.31,4.57.23,4.96-4.32,4.48-5.09-.53-8.1,1-10,5.95-2.41,4.66-4.56,9.05-7.1,13.94h2.58c5.62.03,11.24.09,16.88.05,1.7-.01,2.35.58,2.12,2.28-.45,3.47-.68,6.97-1.25,10.41-3.13,18.49-10.13,35.4-20.77,50.82-.8,1.16-1.4,1.36-2.77.77-7.52-3.26-15.07-6.44-22.67-9.52-1.66-.66-1.99-1.3-1.4-3.01,2.91-8.63,5.72-17.29,8.44-25.99.86-2.73,1.3-5.6,1.92-8.4-3.91,3.79-7.44,7.63-10.9,11.54-1.08,1.22-1.88,1.27-2.89,0-1.8-2.26-3.67-4.47-5.49-6.7-1.16-1.43-2.45-2.97-3.75-4.61-.14.64-.1.73-.18,1.08-1.73,9.42-4.09,18.67-7.78,27.55-.61,1.47-1.26,2.13-3,1.91-9.04-1.13-18.07-2.21-27.13-3.13-4.79-.48-9.63-.61-14.63-.92-.05-.97-.12-1.79-.12-2.61-.01-12.92.04-25.85-.06-38.78-.01-2.27.77-2.79,2.88-2.77,11.94.1,23.87.08,35.82.09.78,0,1.57-.06,2.7-.12-3.75-5.92-7.39-11.42-10.75-17.1-1.26-2.14-2.67-2.8-5.1-2.75-7.52.17-15.05,0-22.58.13-2.21.04-2.89-.66-2.88-2.83.06-9.74.03-19.47-.04-29.2,0-.99-.19-2.23-.79-2.92-6.66-7.56-12.59-15.6-17.68-24.29-.39-.66-1.34-1.29-2.09-1.38-10.98-1.47-21.98-2.82-32.95-4.27-2.3-.3-4.54-.93-7.14-1.49.61-1.42.92-2.52,1.49-3.45,3.73-6.09,7.26-12.32,11.35-18.15,3.92-5.6,8.35-10.88,14.02-14.84,1.57-1.1,2.14-2.26,2.09-4.12-.34-11.57,1.57-22.82,5.08-33.86-26.43,1.67-50.69,10.68-71.27,24.77.77,1.69,1.18,3.57,1.18,5.53,0,7.5-6.08,13.58-13.58,13.58-2.92,0-5.63-.92-7.84-2.49-39.18,38.26-57.72,97.35-39.04,153.18,1.44,4.56,3.1,9.02,4.98,13.37,1.3-1.61,3.3-2.64,5.53-2.64,3.95,0,7.15,3.19,7.15,7.14s-3.14,7.07-7.04,7.14c71.76,133.74,279.2,87.5,281.38-70.53,0-16.02-2.52-31.44-7.19-45.92ZM560.97,80.03c-.71.8-1.16,1.34-1.64,1.84-9.81,10.22-18.8,21.08-25.7,33.52-2.01,3.65-3.86,7.4-5.71,11.13-.48.96-.82,1.79-2.17,1.23-7.06-2.96-14.14-5.88-21.2-8.84-.82-.35-1.53-.96-2.43-1.52,7.92-11.59,45.32-35.41,58.85-37.36ZM465.04,197.52c1.79-19.5,7.82-37.61,17.75-54.46,1.73-2.95,3.6-5.8,5.37-8.72.8-1.3,1.64-1.58,3.18-.9,8.18,3.57,16.43,7.01,24.67,10.46,1.31.55,2.7.92,3.93,1.34-1.88,7.71-3.83,15.11-5.45,22.58-2.09,9.58-3.05,19.32-3.3,29.13-.08,3.17-.03,3.18-3.09,3.18-13.51.01-27.04-.01-40.57.06-2.06.01-2.7-.43-2.49-2.67ZM486.9,284.57c-10.14-13.98-17.03-29.35-19.97-46.41-.9-5.22-1.44-10.5-2.13-15.76v-.03c-.16-1.16.73-2.21,1.9-2.25,13.93-.39,27.82.08,41.75-.14,2.05-.01,2.69.57,2.74,2.67.42,16.95,3.13,33.52,9.01,49.47.6,1.62.12,2.21-1.43,2.79-9.31,3.47-18.6,6.98-27.82,10.68-1.91.77-2.82.68-4.05-1.04ZM500.83,301.43c1.75-.92,3.12-1.82,4.61-2.39,6.61-2.48,13.25-4.83,19.85-7.32,1.75-.66,2.64-.3,3.61,1.34,4.39,7.27,8.65,14.66,13.51,21.59,5.66,8.09,12.31,15.41,19.8,21.9.57.48,1.25.83,1.87,1.25.99.66,1.44,1.13,1.53,1.16-24.29-6.15-46.97-19.17-64.78-37.52ZM586.73,326.38c0,.6-.1,1.19-.16,1.79-7.76-1.08-36.31-34.23-37.48-43.31,1.83-.09,3.63-.12,5.44-.19,10-.64,19.99-1.21,29.99-1.84,1.43-.09,2.26.06,2.25,1.84-.05,13.9-.03,27.81-.04,41.71ZM583.82,264.68c-13.73.56-27.39,1.8-40.89,4.43-1.54.3-1.92-.51-2.21-1.57-1.88-7.01-4.21-13.96-5.45-21.08-1.39-7.97-1.78-16.11-2.66-24.17-.19-1.8.42-2.35,2.23-2.34,16.56.06,33.12.05,49.68.08.66,0,1.26.01,2.19.01l.04,2.57c.03,12.98.05,25.98.06,38.96.01,3.04-.01,3-3,3.12ZM584.2,200.19c-16.34-.1-32.67-.1-49.01-.01-2.17.01-2.67-.69-2.61-2.73.4-14.86,3-29.36,7.11-43.63.57-1.99,1.23-2.7,3.63-2.12,12.85,3.13,25.99,4.43,39.15,5.5,1.35.12,2.69.31,4.26.51v2.36c.01,12.46-.01,24.92.08,37.37.01,2.01-.43,2.75-2.62,2.74ZM609,327.63c-.05-.96-.01-1.79-.01-2.41-.03-13.37-.01-26.76-.05-40.13,0-1.36.08-2.39,1.9-2.3,11.38.51,22.78.96,34.17,1.41-8.87,16.75-21.12,31.07-36,43.42ZM629.27,337.78c.38-.45.7-.95,1.12-1.34,13.59-12.67,25.07-27.03,34.19-43.23.88-1.56,1.77-1.97,3.41-1.27,5.8,2.44,11.63,4.79,17.45,7.2.61.25,1.14.69,2.08,1.25-16.37,17.67-35.88,29.66-58.25,37.39Z"/>
        <path class="cls-1" d="M745.16,69.81c-5.53-17.88-16.28-31.52-31.7-41.2-1.7-1.08-3.47-2.1-5.28-3.08-13.96-7.5-28.9-10.87-44.62-9.42-12.89,1.18-24.86,5.54-35.6,12.98-15.36,10.63-25.51,24.99-30.26,43.02-2.79,10.64-2.73,21.46-1.09,32.32,1.62,10.7,5.6,20.45,11.27,29.57,4.6,7.41,10.36,13.81,16.63,19.81,10.87,10.4,19.02,22.82,26.51,35.74,5.28,9.13,10.18,17.6,16.21,27.18,1.86,2.96,6.01,8.39,6.01,8.39l17.8-26.43s20.19-35.62,34.87-50.42c10.97-11.09,18.15-24.44,20.97-39.92,2.36-12.96,2.19-25.9-1.71-38.54ZM671.56,127.39c-19.89,0-36.01-16.11-36.01-36.01s16.12-36.01,36.01-36.01,36.02,16.12,36.02,36.01-16.12,36.01-36.02,36.01Z"/>
        <path class="cls-2" d="M713.46,28.61c15.42,9.68,26.17,23.33,31.7,41.2,3.91,12.64,4.08,25.59,1.71,38.54-2.82,15.47-10,28.83-20.97,39.92-14.68,14.8-34.87,50.42-34.87,50.42l-17.8,26.43v-66.23s46.1-9.96,56.28-50.38c14.95-58.42-16.06-79.9-16.06-79.9Z"/>
      </g>
      <g>
        <path class="cls-4" d="M83.59,228.56l9.99-54.62h20.82l-18.49,87.11h-21.78l-11.67-49.66-11.43,49.66h-21.72l-18.55-87.11h20.88l9.99,54.62,11.97-54.62h17.83l12.15,54.62Z"/>
        <path class="cls-4" d="M196.36,219.28c0,8.5-1.58,16.01-4.73,22.55-3.15,6.54-7.63,11.58-13.43,15.11-5.8,3.53-12.41,5.29-19.83,5.29s-14-1.71-19.74-5.12c-5.74-3.41-10.22-8.29-13.43-14.63-3.21-6.34-4.9-13.62-5.06-21.84v-4.91c0-8.54,1.56-16.06,4.7-22.59,3.13-6.52,7.62-11.56,13.46-15.11,5.84-3.55,12.49-5.32,19.95-5.32s13.96,1.76,19.74,5.27c5.78,3.51,10.28,8.51,13.49,14.99,3.21,6.48,4.84,13.91,4.88,22.29v4.01ZM175,215.63c0-8.65-1.45-15.23-4.34-19.71-2.89-4.49-7.03-6.73-12.41-6.73-10.53,0-16.09,7.9-16.69,23.69l-.06,6.4c0,8.54,1.42,15.1,4.25,19.68,2.83,4.59,7.04,6.88,12.62,6.88s9.39-2.25,12.26-6.76c2.87-4.51,4.33-10.99,4.37-19.44v-4.01Z"/>
        <path class="cls-4" d="M239.56,230.23h-11.37v30.81h-21v-87.11h34.28c10.33,0,18.41,2.29,24.23,6.87,5.82,4.58,8.73,11.06,8.73,19.42,0,6.06-1.23,11.08-3.68,15.06-2.45,3.98-6.29,7.21-11.52,9.68l18.19,35.17v.9h-22.5l-15.38-30.81ZM228.19,214.08h13.28c3.99,0,6.99-1.05,9-3.15,2.01-2.1,3.02-5.03,3.02-8.79s-1.02-6.71-3.05-8.85c-2.03-2.14-5.03-3.21-8.97-3.21h-13.28v23.99Z"/>
        <path class="cls-4" d="M308.12,244.89h36.55v16.15h-57.55v-87.11h21v70.96Z"/>
        <path class="cls-4" d="M353.53,261.04v-87.11h28.06c7.7,0,14.62,1.75,20.76,5.23,6.14,3.49,10.94,8.42,14.39,14.78,3.45,6.36,5.19,13.49,5.23,21.39v4.01c0,7.98-1.69,15.13-5.06,21.45-3.37,6.32-8.12,11.27-14.24,14.84-6.12,3.57-12.95,5.38-20.49,5.41h-28.66ZM374.53,190.15v54.74h7.3c6.02,0,10.65-2.14,13.88-6.43,3.23-4.29,4.85-10.66,4.85-19.12v-3.77c0-8.42-1.62-14.76-4.85-19.03-3.23-4.27-7.94-6.4-14.12-6.4h-7.06Z"/>
        <path class="cls-4" d="M795.95,173.93l19.44,60.6,19.38-60.6h27.64v87.11h-21.06v-20.34l2.03-41.64-21.06,61.98h-13.88l-21.12-62.04,2.03,41.7v20.34h-21v-87.11h27.58Z"/>
        <path class="cls-4" d="M925.24,244.77h-28.78l-5.03,16.27h-22.44l31.95-87.11h19.74l32.19,87.11h-22.56l-5.08-16.27ZM901.49,228.56h18.73l-9.39-30.21-9.33,30.21Z"/>
        <path class="cls-4" d="M980.22,231.49v29.55h-21v-87.11h34.76c6.66,0,12.55,1.23,17.68,3.68,5.12,2.45,9.09,5.94,11.91,10.47,2.81,4.53,4.22,9.66,4.22,15.41,0,8.5-3.04,15.29-9.12,20.37-6.08,5.08-14.43,7.63-25.04,7.63h-13.4ZM980.22,215.27h13.76c4.07,0,7.17-1.02,9.3-3.05,2.13-2.03,3.2-4.91,3.2-8.62,0-4.07-1.1-7.32-3.29-9.75-2.19-2.43-5.19-3.67-8.97-3.71h-14v25.13Z"/>
        <path class="cls-4" d="M1059.97,231.49v29.55h-21v-87.11h34.76c6.66,0,12.55,1.23,17.68,3.68,5.12,2.45,9.09,5.94,11.91,10.47,2.81,4.53,4.22,9.66,4.22,15.41,0,8.5-3.04,15.29-9.12,20.37-6.08,5.08-14.43,7.63-25.04,7.63h-13.4ZM1059.97,215.27h13.76c4.07,0,7.17-1.02,9.3-3.05,2.13-2.03,3.2-4.91,3.2-8.62,0-4.07-1.1-7.32-3.29-9.75-2.19-2.43-5.19-3.67-8.97-3.71h-14v25.13Z"/>
        <path class="cls-4" d="M1141.1,261.04h-20.94v-87.11h20.94v87.11Z"/>
        <path class="cls-4" d="M1228.45,261.04h-20.88l-30.87-54.2v54.2h-21v-87.11h21l30.81,54.2v-54.2h20.94v87.11Z"/>
      </g>
      <g>
        <path class="cls-1" d="M775,309.24v14.09h-6.6v-38h14.54c4.25,0,7.62,1.11,10.11,3.32s3.75,5.14,3.75,8.78-1.22,6.63-3.67,8.7c-2.44,2.07-5.87,3.11-10.27,3.11h-7.86ZM775,303.91h7.93c2.35,0,4.14-.55,5.38-1.66,1.24-1.11,1.85-2.7,1.85-4.79s-.63-3.69-1.88-4.92c-1.25-1.23-2.98-1.86-5.17-1.89h-8.12v13.26Z"/>
        <path class="cls-1" d="M812.2,323.33h-6.58v-38h6.58v38Z"/>
        <path class="cls-1" d="M853.14,323.33h-6.6l-16.94-26.96v26.96h-6.6v-38h6.6l16.99,27.07v-27.07h6.55v38Z"/>
        <path class="cls-1" d="M892,303.34l8.74-18.01h7.31l-12.74,24.01v13.99h-6.63v-13.99l-12.76-24.01h7.33l8.74,18.01Z"/>
        <path class="cls-1" d="M944.42,305.32c0,3.72-.64,6.99-1.93,9.8-1.29,2.81-3.13,4.97-5.52,6.47s-5.15,2.26-8.26,2.26-5.82-.75-8.23-2.26-4.27-3.65-5.59-6.43c-1.31-2.78-1.98-5.99-2-9.63v-2.14c0-3.71.66-6.98,1.97-9.81,1.31-2.84,3.17-5.01,5.56-6.51,2.39-1.5,5.14-2.26,8.23-2.26s5.84.74,8.23,2.23,4.24,3.63,5.55,6.42c1.3,2.79,1.97,6.04,1.98,9.75v2.11ZM937.81,303.34c0-4.21-.8-7.44-2.39-9.68s-3.85-3.37-6.77-3.37-5.08,1.12-6.69,3.35c-1.61,2.24-2.43,5.4-2.47,9.49v2.19c0,4.18.81,7.4,2.44,9.68s3.88,3.42,6.77,3.42,5.17-1.11,6.75-3.34c1.57-2.23,2.36-5.48,2.36-9.76v-1.98Z"/>
        <path class="cls-1" d="M981.47,285.33v25.4c0,4.04-1.29,7.23-3.88,9.59-2.58,2.36-6.03,3.54-10.32,3.54s-7.8-1.16-10.36-3.48c-2.56-2.32-3.84-5.55-3.84-9.67v-25.37h6.58v25.42c0,2.54.64,4.48,1.93,5.82,1.29,1.34,3.18,2.01,5.69,2.01,5.08,0,7.62-2.68,7.62-8.04v-25.21h6.58Z"/>
        <path class="cls-1" d="M1005.15,308.71h-7.36v14.62h-6.6v-38h13.36c4.39,0,7.77.98,10.15,2.95,2.38,1.97,3.58,4.82,3.58,8.54,0,2.54-.61,4.67-1.84,6.39-1.23,1.72-2.94,3.04-5.13,3.96l8.54,15.83v.34h-7.07l-7.62-14.62ZM997.79,303.39h6.79c2.23,0,3.97-.56,5.22-1.68,1.25-1.12,1.88-2.66,1.88-4.61s-.58-3.61-1.74-4.72c-1.16-1.11-2.88-1.69-5.18-1.72h-6.97v12.74Z"/>
        <path class="cls-1" d="M1073,313.93l5.85-28.61h6.55l-8.77,38h-6.32l-7.23-27.74-7.39,27.74h-6.34l-8.77-38h6.55l5.9,28.55,7.26-28.55h5.53l7.18,28.61Z"/>
        <path class="cls-1" d="M1123.23,305.32c0,3.72-.64,6.99-1.93,9.8-1.29,2.81-3.13,4.97-5.52,6.47s-5.15,2.26-8.26,2.26-5.82-.75-8.23-2.26-4.27-3.65-5.59-6.43c-1.31-2.78-1.98-5.99-2-9.63v-2.14c0-3.71.66-6.98,1.97-9.81,1.31-2.84,3.17-5.01,5.56-6.51,2.39-1.5,5.14-2.26,8.23-2.26s5.84.74,8.23,2.23,4.24,3.63,5.55,6.42c1.3,2.79,1.97,6.04,1.98,9.75v2.11ZM1116.63,303.34c0-4.21-.8-7.44-2.39-9.68s-3.85-3.37-6.77-3.37-5.08,1.12-6.69,3.35c-1.61,2.24-2.43,5.4-2.47,9.49v2.19c0,4.18.81,7.4,2.44,9.68s3.88,3.42,6.77,3.42,5.17-1.11,6.75-3.34c1.57-2.23,2.36-5.48,2.36-9.76v-1.98Z"/>
        <path class="cls-1" d="M1146.44,308.71h-7.36v14.62h-6.6v-38h13.36c4.39,0,7.77.98,10.15,2.95,2.38,1.97,3.58,4.82,3.58,8.54,0,2.54-.61,4.67-1.84,6.39-1.23,1.72-2.94,3.04-5.13,3.96l8.54,15.83v.34h-7.07l-7.62-14.62ZM1139.08,303.39h6.79c2.23,0,3.97-.56,5.22-1.68,1.25-1.12,1.88-2.66,1.88-4.61s-.58-3.61-1.74-4.72c-1.16-1.11-2.88-1.69-5.18-1.72h-6.97v12.74Z"/>
        <path class="cls-1" d="M1175.11,318.06h17.25v5.27h-23.86v-38h6.6v32.73Z"/>
        <path class="cls-1" d="M1200.1,323.33v-38h11.22c3.36,0,6.34.75,8.94,2.24,2.6,1.5,4.62,3.62,6.04,6.37,1.43,2.75,2.14,5.9,2.14,9.45v1.9c0,3.6-.72,6.77-2.15,9.5-1.44,2.73-3.48,4.84-6.13,6.32-2.65,1.48-5.69,2.22-9.12,2.22h-10.94ZM1206.71,290.65v27.41h4.31c3.46,0,6.12-1.08,7.97-3.25,1.85-2.17,2.8-5.28,2.83-9.33v-2.11c0-4.12-.9-7.27-2.69-9.45s-4.39-3.26-7.8-3.26h-4.62Z"/>
      </g>
    </g>
  </g>
</svg>