<?xml version="1.0" encoding="UTF-8"?>
<svg version="1.1" xmlns="http://www.w3.org/2000/svg" width="96" height="96">
<path d="M0 0 C8.80288754 6.34043826 15.4186507 14.72648904 17.58203125 25.4921875 C18.92007691 37.90936834 17.85729499 48.88109459 10.39453125 59.2421875 C3.58210875 67.3274193 -4.72289951 73.55522767 -15.48876953 74.71533203 C-28.40007937 75.61089799 -39.16843729 74.04490094 -49.3515625 65.46484375 C-57.86959925 57.33325857 -62.42046403 48.68416257 -62.88867188 36.85693359 C-63.04371176 24.34263074 -60.22647828 14.71931927 -51.41796875 5.4921875 C-37.63784493 -7.66275112 -16.31305228 -10.17259803 0 0 Z M-26.0859375 4.99609375 C-26.58738281 5.67542969 -27.08882812 6.35476562 -27.60546875 7.0546875 C-28.11464844 7.71597656 -28.62382813 8.37726562 -29.1484375 9.05859375 C-30.89835445 12.08419393 -30.89835445 12.08419393 -31.41796875 18.4921875 C-25.47796875 18.4921875 -19.53796875 18.4921875 -13.41796875 18.4921875 C-14.16220793 11.94083483 -14.16220793 11.94083483 -17.23046875 7.0546875 C-17.73191406 6.37535156 -18.23335937 5.69601563 -18.75 4.99609375 C-21.30730204 2.69032962 -23.52863546 2.69032962 -26.0859375 4.99609375 Z M-46.41796875 13.4921875 C-48.31834924 16.17873458 -48.31834924 16.17873458 -49.41796875 18.4921875 C-46.77796875 18.4921875 -44.13796875 18.4921875 -41.41796875 18.4921875 C-40.42796875 14.8621875 -39.43796875 11.2321875 -38.41796875 7.4921875 C-41.22619261 7.4921875 -44.5003631 11.63545822 -46.41796875 13.4921875 Z M-6.41796875 7.4921875 C-5.42796875 11.1221875 -4.43796875 14.7521875 -3.41796875 18.4921875 C-0.77796875 18.4921875 1.86203125 18.4921875 4.58203125 18.4921875 C0.09369049 11.91711025 0.09369049 11.91711025 -6.41796875 7.4921875 Z M-53.41796875 27.4921875 C-53.51706177 29.82378805 -53.54767379 32.15848692 -53.54296875 34.4921875 C-53.54554687 35.7709375 -53.548125 37.0496875 -53.55078125 38.3671875 C-53.77657768 41.35905994 -53.77657768 41.35905994 -52.41796875 42.4921875 C-49.08178644 42.63475939 -45.75821269 42.53446907 -42.41796875 42.4921875 C-42.41796875 37.2121875 -42.41796875 31.9321875 -42.41796875 26.4921875 C-48.19446924 25.86817812 -48.19446924 25.86817812 -53.41796875 27.4921875 Z M-33.41796875 26.4921875 C-33.41796875 31.7721875 -33.41796875 37.0521875 -33.41796875 42.4921875 C-26.15796875 42.4921875 -18.89796875 42.4921875 -11.41796875 42.4921875 C-11.41796875 37.2121875 -11.41796875 31.9321875 -11.41796875 26.4921875 C-18.67796875 26.4921875 -25.93796875 26.4921875 -33.41796875 26.4921875 Z M-2.41796875 26.4921875 C-2.41796875 31.7721875 -2.41796875 37.0521875 -2.41796875 42.4921875 C2.58406206 42.58461423 2.58406206 42.58461423 7.58203125 42.4921875 C8.94064018 41.35905994 8.94064018 41.35905994 8.71484375 38.3671875 C8.71226563 37.0884375 8.7096875 35.8096875 8.70703125 34.4921875 C8.70960937 33.2134375 8.7121875 31.9346875 8.71484375 30.6171875 C8.94064018 27.62531506 8.94064018 27.62531506 7.58203125 26.4921875 C4.24584894 26.34961561 0.92227519 26.44990593 -2.41796875 26.4921875 Z M-49.41796875 50.4921875 C-44.92962799 57.06726475 -44.92962799 57.06726475 -38.41796875 61.4921875 C-39.40796875 57.8621875 -40.39796875 54.2321875 -41.41796875 50.4921875 C-44.05796875 50.4921875 -46.69796875 50.4921875 -49.41796875 50.4921875 Z M-31.41796875 50.4921875 C-30.65601862 57.14681901 -30.65601862 57.14681901 -27.35546875 61.9296875 C-26.80761719 62.60902344 -26.25976562 63.28835937 -25.6953125 63.98828125 C-25.06302734 64.73271484 -25.06302734 64.73271484 -24.41796875 65.4921875 C-20.97985081 65.20567767 -19.67625682 64.75785523 -17.23046875 62.2421875 C-14.50302123 58.10399127 -13.41796875 55.48677162 -13.41796875 50.4921875 C-19.35796875 50.4921875 -25.29796875 50.4921875 -31.41796875 50.4921875 Z M-3.41796875 50.4921875 C-4.90296875 55.9371875 -4.90296875 55.9371875 -6.41796875 61.4921875 C0.17040007 56.99073288 0.17040007 56.99073288 4.58203125 50.4921875 C1.94203125 50.4921875 -0.69796875 50.4921875 -3.41796875 50.4921875 Z " fill="#000000" transform="translate(70.41796875,13.5078125)"/>
</svg>
