<?xml version="1.0" encoding="UTF-8"?>
<svg version="1.1" xmlns="http://www.w3.org/2000/svg" width="512" height="512">
<path d="M0 0 C0.64533691 0.29245605 1.29067383 0.58491211 1.95556641 0.88623047 C16.69422145 7.67845281 29.69885076 16.42220017 42 27 C43.09248047 27.90878906 43.09248047 27.90878906 44.20703125 28.8359375 C48.9637966 32.8559954 53.02157195 37.2174216 57 42 C57.68835938 42.80050781 58.37671875 43.60101563 59.0859375 44.42578125 C89.57070659 80.5261657 100.46840677 125.39426248 96.68359375 171.88671875 C95.81809926 179.65936347 94.50554599 187.32821699 93 195 C92.75902588 196.29212402 92.75902588 196.29212402 92.51318359 197.61035156 C79.88520142 263.67449924 43.0470839 326.74684186 5 381 C4.51273438 381.69577148 4.02546875 382.39154297 3.5234375 383.10839844 C-8.09387971 399.64647929 -20.35210961 415.70575245 -33.4921875 431.0625 C-34.76201303 432.54989688 -36.03098114 434.03930206 -37.24169922 435.57519531 C-39.97029936 439.01248099 -42.65915503 441.42892778 -46.375 443.75 C-47.26960937 444.32234375 -48.16421875 444.8946875 -49.0859375 445.484375 C-57.96399619 450.10191759 -68.44075529 450.29222028 -78.1328125 448.3828125 C-93.89618198 443.30799555 -104.05730576 428.35643512 -114 416 C-114.91374442 414.87864698 -115.82782139 413.75756489 -116.7421875 412.63671875 C-139.19627937 385.00324158 -159.68141484 355.12013043 -177 324 C-177.54736816 323.02579102 -178.09473633 322.05158203 -178.65869141 321.04785156 C-207.58186381 269.35225735 -231.62154962 211.7508521 -231.3125 151.625 C-231.31034485 150.86241882 -231.3081897 150.09983765 -231.30596924 149.31414795 C-231.25326304 137.65328281 -230.78668508 126.36456746 -228 115 C-227.80132324 114.16936035 -227.60264648 113.3387207 -227.39794922 112.48291016 C-220.72412289 85.34268309 -208.09558031 60.76409465 -189.04296875 40.25390625 C-187.62324156 38.68759155 -186.26157259 37.06747167 -184.94921875 35.41015625 C-161.82040428 6.81200289 -120.23446453 -9.18776332 -84.75 -13.3125 C-55.8801231 -16.18485554 -26.47624107 -12.01694305 0 0 Z M-158 56 C-158.88171875 56.80695313 -159.7634375 57.61390625 -160.671875 58.4453125 C-182.06217272 78.68754339 -196.55357593 109.75288957 -198.17700195 139.21191406 C-198.69738725 167.26710844 -195.14425367 193.05152073 -187 220 C-186.72816895 220.90911133 -186.45633789 221.81822266 -186.17626953 222.75488281 C-167.19125853 285.32520076 -129.89195703 344.20181132 -88.44580078 394.25 C-87.10008338 395.87885889 -85.76435812 397.51516582 -84.43359375 399.15625 C-82.9593288 400.97226503 -81.47821894 402.7827588 -79.98828125 404.5859375 C-78.67530146 406.18008585 -77.38049079 407.78939525 -76.10546875 409.4140625 C-73.48571242 412.64452455 -71.75376146 414.68342019 -67.875 416.3125 C-60.3968138 415.49965367 -52.70857105 402.81169203 -48 397 C-23.00588628 365.09205171 -0.46815644 331.00584794 18.74902344 295.32128906 C19.6195789 293.70590238 20.49564854 292.09348027 21.37597656 290.48339844 C39.95940143 256.4200686 55.32794494 219.38716607 62 181 C62.24105469 179.78828125 62.48210937 178.5765625 62.73046875 177.328125 C66.16637078 157.31226617 65.4807997 135.54983691 60 116 C59.81808105 115.3301709 59.63616211 114.6603418 59.44873047 113.97021484 C50.38832539 81.49364223 27.55834684 53.1694527 -1.46875 36.37890625 C-52.75497214 7.69716063 -115.56278388 15.34240907 -158 56 Z " fill="#000000" transform="translate(323,38)"/>
<path d="M0 0 C10.96518572 10.45555939 17.4045318 23.36734648 18.19921875 38.60546875 C18.0473704 53.50558822 12.98620108 66.47564514 3.16796875 77.671875 C-8.15827887 88.69709278 -21.28826588 93.06041519 -36.81811523 92.97241211 C-49.71302588 92.63557656 -62.60385244 87.57143976 -72.02734375 78.63671875 C-82.51876406 67.21424166 -87.22686556 53.997696 -87.83203125 38.671875 C-87.24465035 25.55859631 -82.47997306 14.4362907 -73.83203125 4.671875 C-73.35636719 4.06859375 -72.88070312 3.4653125 -72.390625 2.84375 C-54.35646714 -18.06268888 -20.02185496 -16.45934559 0 0 Z " fill="#000000" transform="translate(290.83203125,139.328125)"/>
</svg>
